<svg xmlns="http://www.w3.org/2000/svg" xmlns:xlink="http://www.w3.org/1999/xlink" width="1800" height="900" viewBox="0 0 1800 900" font-family="Arial, Helvetica, sans-serif"><defs><marker id="flecha" viewBox="0 0 10 10" refX="9" refY="5" markerWidth="7" markerHeight="7" orient="auto-start-reverse"><path d="M0,0 L10,5 L0,10 z" fill="#404040"/></marker><marker id="flecha_azul" viewBox="0 0 10 10" refX="9" refY="5" markerWidth="7" markerHeight="7" orient="auto-start-reverse"><path d="M0,0 L10,5 L0,10 z" fill="#1f4e79"/></marker><marker id="flecha_verde" viewBox="0 0 10 10" refX="9" refY="5" markerWidth="7" markerHeight="7" orient="auto-start-reverse"><path d="M0,0 L10,5 L0,10 z" fill="#1e7b4f"/></marker><marker id="flecha_roja" viewBox="0 0 10 10" refX="9" refY="5" markerWidth="7" markerHeight="7" orient="auto-start-reverse"><path d="M0,0 L10,5 L0,10 z" fill="#c00000"/></marker><marker id="flecha_gris" viewBox="0 0 10 10" refX="9" refY="5" markerWidth="7" markerHeight="7" orient="auto-start-reverse"><path d="M0,0 L10,5 L0,10 z" fill="#7f7f7f"/></marker><marker id="abierta" viewBox="0 0 10 10" refX="9" refY="5" markerWidth="8" markerHeight="8" orient="auto-start-reverse"><path d="M0,0 L10,5 L0,10" fill="none" stroke="#404040" stroke-width="1.4"/></marker><marker id="triangulo" viewBox="0 0 12 12" refX="11" refY="6" markerWidth="12" markerHeight="12" orient="auto"><path d="M0,0 L12,6 L0,12 z" fill="#fff" stroke="#404040" stroke-width="1.2"/></marker><marker id="rombo" viewBox="0 0 16 10" refX="1" refY="5" markerWidth="16" markerHeight="10" orient="auto"><path d="M1,5 L8,1 L15,5 L8,9 z" fill="#404040"/></marker><marker id="rombo_hueco" viewBox="0 0 16 10" refX="1" refY="5" markerWidth="16" markerHeight="10" orient="auto"><path d="M1,5 L8,1 L15,5 L8,9 z" fill="#fff" stroke="#404040"/></marker><marker id="circulo" viewBox="0 0 10 10" refX="5" refY="5" markerWidth="7" markerHeight="7"><circle cx="5" cy="5" r="4" fill="#fff" stroke="#404040" stroke-width="1.2"/></marker></defs><rect x="0" y="0" width="1800" height="900" rx="0" fill="#ffffff" stroke="none" stroke-width="1.5"/><text x="30" y="36" font-size="20" fill="#1f4e79" font-weight="bold" text-anchor="start">Subproceso «Registrar factura con IA» (CU-01 y CU-02) con sus excepciones</text><rect x="30" y="60" width="1740" height="780" rx="0" fill="#fff" stroke="#404040" stroke-width="1.6"/><rect x="30" y="60" width="34" height="780" rx="0" fill="#dce6f2" stroke="#404040" stroke-width="1.6"/><text x="47.0" y="450.0" font-size="14" fill="#404040" font-weight="bold" text-anchor="middle" dominant-baseline="middle" transform="rotate(-90 47.0 450.0)">App Facturas S20</text><rect x="64" y="60" width="30" height="190" rx="0" fill="#f2f2f2" stroke="#404040" stroke-width="1"/><text x="79.0" y="155.0" font-size="12" fill="#404040" font-weight="normal" text-anchor="middle" dominant-baseline="middle" transform="rotate(-90 79.0 155.0)">Bodeguero</text><rect x="64" y="250" width="30" height="170" rx="0" fill="#f2f2f2" stroke="#404040" stroke-width="1"/><text x="71.8" y="335.0" font-size="12" fill="#404040" font-weight="normal" text-anchor="middle" dominant-baseline="middle" transform="rotate(-90 71.8 335.0)">Captura</text><text x="86.2" y="335.0" font-size="12" fill="#404040" font-weight="normal" text-anchor="middle" dominant-baseline="middle" transform="rotate(-90 86.2 335.0)">(cámara)</text><line x1="64" y1="250" x2="1770" y2="250" stroke="#404040" stroke-width="1"/><rect x="64" y="420" width="30" height="170" rx="0" fill="#f2f2f2" stroke="#404040" stroke-width="1"/><text x="71.8" y="505.0" font-size="12" fill="#404040" font-weight="normal" text-anchor="middle" dominant-baseline="middle" transform="rotate(-90 71.8 505.0)">Motor de extracción</text><text x="86.2" y="505.0" font-size="12" fill="#404040" font-weight="normal" text-anchor="middle" dominant-baseline="middle" transform="rotate(-90 86.2 505.0)">Gemma 4 E2B</text><line x1="64" y1="420" x2="1770" y2="420" stroke="#404040" stroke-width="1"/><rect x="64" y="590" width="30" height="250" rx="0" fill="#f2f2f2" stroke="#404040" stroke-width="1"/><text x="79.0" y="715.0" font-size="12" fill="#404040" font-weight="normal" text-anchor="middle" dominant-baseline="middle" transform="rotate(-90 79.0 715.0)">Reglas y datos</text><line x1="64" y1="590" x2="1770" y2="590" stroke="#404040" stroke-width="1"/><circle cx="130" cy="155" r="17" fill="#fff" stroke="#1e7b4f" stroke-width="2"/><text x="130" y="186" font-size="11" fill="#404040" font-weight="normal" text-anchor="middle">Toca</text><text x="130" y="199" font-size="11" fill="#404040" font-weight="normal" text-anchor="middle">«Escanear»</text><rect x="185.0" y="303.0" width="150" height="64" rx="10" fill="#fff" stroke="#1f4e79" stroke-width="1.8"/><circle cx="199.0" cy="317.0" r="5.5" fill="#fff" stroke="#404040" stroke-width="1.2" stroke-dasharray="2.2 1.6"/><circle cx="199.0" cy="317.0" r="2.2" fill="#fff" stroke="#404040" stroke-width="1.1"/><text x="260" y="335.5" font-size="12.5" fill="#1a1a1a" font-weight="normal" text-anchor="middle">Mostrar guía de</text><text x="260" y="350.5" font-size="12.5" fill="#1a1a1a" font-weight="normal" text-anchor="middle">encuadre</text><rect x="325.0" y="123.0" width="150" height="64" rx="10" fill="#fff" stroke="#1f4e79" stroke-width="1.8"/><circle cx="339.0" cy="135.0" r="3.6" fill="#fff" stroke="#404040" stroke-width="1.1"/><path d="M333.0,145.0 Q339.0,136.0 345.0,145.0 Z" fill="#fff" stroke="#404040" stroke-width="1.1"/><text x="400" y="155.5" font-size="12.5" fill="#1a1a1a" font-weight="normal" text-anchor="middle">Tomar la foto o</text><text x="400" y="170.5" font-size="12.5" fill="#1a1a1a" font-weight="normal" text-anchor="middle">elegir de galería</text><rect x="465.0" y="303.0" width="150" height="64" rx="10" fill="#fff" stroke="#1f4e79" stroke-width="1.8"/><circle cx="479.0" cy="317.0" r="5.5" fill="#fff" stroke="#404040" stroke-width="1.2" stroke-dasharray="2.2 1.6"/><circle cx="479.0" cy="317.0" r="2.2" fill="#fff" stroke="#404040" stroke-width="1.1"/><text x="540" y="335.5" font-size="12.5" fill="#1a1a1a" font-weight="normal" text-anchor="middle">Evaluar nitidez e</text><text x="540" y="350.5" font-size="12.5" fill="#1a1a1a" font-weight="normal" text-anchor="middle">iluminación</text><polygon points="690,311 714,335 690,359 666,335" fill="#fffbe6" stroke="#c55a11" stroke-width="1.8"/><line x1="682" y1="327" x2="698" y2="343" stroke="#404040" stroke-width="2.6"/><line x1="698" y1="327" x2="682" y2="343" stroke="#404040" stroke-width="2.6"/><text x="690" y="303" font-size="11" fill="#404040" font-weight="bold" text-anchor="middle">¿Legible?</text><polygon points="820,311 844,335 820,359 796,335" fill="#fffbe6" stroke="#c55a11" stroke-width="1.8"/><line x1="812" y1="327" x2="828" y2="343" stroke="#404040" stroke-width="2.6"/><line x1="828" y1="327" x2="812" y2="343" stroke="#404040" stroke-width="2.6"/><text x="820" y="373" font-size="11" fill="#404040" font-weight="normal" text-anchor="middle">¿Modelo instalado y</text><text x="820" y="386" font-size="11" fill="#404040" font-weight="normal" text-anchor="middle">memoria suficiente?</text><rect x="745.0" y="123.0" width="150" height="64" rx="10" fill="#fff" stroke="#1f4e79" stroke-width="1.8"/><circle cx="759.0" cy="135.0" r="3.6" fill="#fff" stroke="#404040" stroke-width="1.1"/><path d="M753.0,145.0 Q759.0,136.0 765.0,145.0 Z" fill="#fff" stroke="#404040" stroke-width="1.1"/><text x="820" y="155.5" font-size="12.5" fill="#1a1a1a" font-weight="normal" text-anchor="middle">Registrar los</text><text x="820" y="170.5" font-size="12.5" fill="#1a1a1a" font-weight="normal" text-anchor="middle">datos a mano</text><rect x="885.0" y="473.0" width="150" height="64" rx="10" fill="#e3f1e8" stroke="#1e7b4f" stroke-width="1.8"/><circle cx="899.0" cy="487.0" r="5.5" fill="#fff" stroke="#404040" stroke-width="1.2" stroke-dasharray="2.2 1.6"/><circle cx="899.0" cy="487.0" r="2.2" fill="#fff" stroke="#404040" stroke-width="1.1"/><text x="960" y="505.5" font-size="12.5" fill="#1a1a1a" font-weight="normal" text-anchor="middle">Extraer campos y</text><text x="960" y="520.5" font-size="12.5" fill="#1a1a1a" font-weight="normal" text-anchor="middle">confianza (JSON)</text><rect x="1015.0" y="608.0" width="170" height="64" rx="10" fill="#fff" stroke="#1f4e79" stroke-width="1.8"/><rect x="1023.0" y="616.0" width="14" height="11" rx="0" fill="#fff" stroke="#404040" stroke-width="1"/><rect x="1023.0" y="616.0" width="14" height="3.5" rx="0" fill="#f2f2f2" stroke="#404040" stroke-width="1"/><line x1="1023.0" y1="623.2" x2="1037.0" y2="623.2" stroke="#404040" stroke-width="0.8"/><line x1="1027.5" y1="619.5" x2="1027.5" y2="627.0" stroke="#404040" stroke-width="0.8"/><text x="1100" y="640.5" font-size="12.5" fill="#1a1a1a" font-weight="normal" text-anchor="middle">Validar RUC módulo 11</text><text x="1100" y="655.5" font-size="12.5" fill="#1a1a1a" font-weight="normal" text-anchor="middle">y fecha del período</text><polygon points="1260,616 1284,640 1260,664 1236,640" fill="#fffbe6" stroke="#c55a11" stroke-width="1.8"/><line x1="1252" y1="632" x2="1268" y2="648" stroke="#404040" stroke-width="2.6"/><line x1="1268" y1="632" x2="1252" y2="648" stroke="#404040" stroke-width="2.6"/><text x="1260" y="678" font-size="11" fill="#404040" font-weight="normal" text-anchor="middle">¿Duplicada?</text><rect x="1190.0" y="121.5" width="140" height="67" rx="10" fill="#fff" stroke="#1f4e79" stroke-width="1.8"/><circle cx="1204.0" cy="133.5" r="3.6" fill="#fff" stroke="#404040" stroke-width="1.1"/><path d="M1198.0,143.5 Q1204.0,134.5 1210.0,143.5 Z" fill="#fff" stroke="#404040" stroke-width="1.1"/><text x="1260" y="148.0" font-size="12.5" fill="#1a1a1a" font-weight="normal" text-anchor="middle">Ver aviso de</text><text x="1260" y="163.0" font-size="12.5" fill="#1a1a1a" font-weight="normal" text-anchor="middle">factura ya</text><text x="1260" y="178.0" font-size="12.5" fill="#1a1a1a" font-weight="normal" text-anchor="middle">registrada</text><circle cx="1260" cy="85" r="15" fill="#fff" stroke="#c00000" stroke-width="4"/><rect x="1335.0" y="121.5" width="150" height="67" rx="10" fill="#fff" stroke="#1f4e79" stroke-width="1.8"/><circle cx="1349.0" cy="133.5" r="3.6" fill="#fff" stroke="#404040" stroke-width="1.1"/><path d="M1343.0,143.5 Q1349.0,134.5 1355.0,143.5 Z" fill="#fff" stroke="#404040" stroke-width="1.1"/><text x="1410" y="148.0" font-size="12.5" fill="#1a1a1a" font-weight="normal" text-anchor="middle">Revisar campos</text><text x="1410" y="163.0" font-size="12.5" fill="#1a1a1a" font-weight="normal" text-anchor="middle">(baja confianza</text><text x="1410" y="178.0" font-size="12.5" fill="#1a1a1a" font-weight="normal" text-anchor="middle">resaltada)</text><polygon points="1560,131 1584,155 1560,179 1536,155" fill="#fffbe6" stroke="#c55a11" stroke-width="1.8"/><line x1="1552" y1="147" x2="1568" y2="163" stroke="#404040" stroke-width="2.6"/><line x1="1568" y1="147" x2="1552" y2="163" stroke="#404040" stroke-width="2.6"/><text x="1560" y="123" font-size="11" fill="#404040" font-weight="bold" text-anchor="middle">¿Corrige?</text><rect x="1500.0" y="229.0" width="120" height="52" rx="10" fill="#fff" stroke="#1f4e79" stroke-width="1.8"/><circle cx="1514.0" cy="241.0" r="3.6" fill="#fff" stroke="#404040" stroke-width="1.1"/><path d="M1508.0,251.0 Q1514.0,242.0 1520.0,251.0 Z" fill="#fff" stroke="#404040" stroke-width="1.1"/><text x="1560" y="255.5" font-size="12.5" fill="#1a1a1a" font-weight="normal" text-anchor="middle">Corregir</text><text x="1560" y="270.5" font-size="12.5" fill="#1a1a1a" font-weight="normal" text-anchor="middle">campos</text><polygon points="1680,131 1704,155 1680,179 1656,155" fill="#fffbe6" stroke="#c55a11" stroke-width="1.8"/><line x1="1672" y1="147" x2="1688" y2="163" stroke="#404040" stroke-width="2.6"/><line x1="1688" y1="147" x2="1672" y2="163" stroke="#404040" stroke-width="2.6"/><rect x="1440.0" y="606.5" width="160" height="67" rx="10" fill="#fff" stroke="#1f4e79" stroke-width="1.8"/><circle cx="1454.0" cy="620.5" r="5.5" fill="#fff" stroke="#404040" stroke-width="1.2" stroke-dasharray="2.2 1.6"/><circle cx="1454.0" cy="620.5" r="2.2" fill="#fff" stroke="#404040" stroke-width="1.1"/><text x="1520" y="633.0" font-size="12.5" fill="#1a1a1a" font-weight="normal" text-anchor="middle">Guardar factura,</text><text x="1520" y="648.0" font-size="12.5" fill="#1a1a1a" font-weight="normal" text-anchor="middle">imagen y campos</text><text x="1520" y="663.0" font-size="12.5" fill="#1a1a1a" font-weight="normal" text-anchor="middle">(transacción)</text><rect x="1440.0" y="732.0" width="160" height="56" rx="10" fill="#fff" stroke="#1f4e79" stroke-width="1.8"/><rect x="1448.0" y="740.0" width="14" height="11" rx="0" fill="#fff" stroke="#404040" stroke-width="1"/><rect x="1448.0" y="740.0" width="14" height="3.5" rx="0" fill="#f2f2f2" stroke="#404040" stroke-width="1"/><line x1="1448.0" y1="747.2" x2="1462.0" y2="747.2" stroke="#404040" stroke-width="0.8"/><line x1="1452.5" y1="743.5" x2="1452.5" y2="751.0" stroke="#404040" stroke-width="0.8"/><text x="1520" y="760.5" font-size="12.5" fill="#1a1a1a" font-weight="normal" text-anchor="middle">Recalcular acumulado</text><text x="1520" y="775.5" font-size="12.5" fill="#1a1a1a" font-weight="normal" text-anchor="middle">y determinación</text><circle cx="1690" cy="760" r="17" fill="#fff" stroke="#c00000" stroke-width="4"/><text x="1690" y="791" font-size="11" fill="#404040" font-weight="normal" text-anchor="middle">Factura registrada</text><path d="M1272.0,741 a28.0,7 0 0 0 56,0 v30 a28.0,7 0 0 1 -56,0 z" fill="#fff" stroke="#404040" stroke-width="1.3"/><ellipse cx="1300" cy="741" rx="28.0" ry="7" fill="#fff" stroke="#404040" stroke-width="1.3"/><text x="1300" y="791" font-size="11" fill="#404040" font-weight="normal" text-anchor="middle">BD local cifrada</text><text x="1300" y="804" font-size="11" fill="#404040" font-weight="normal" text-anchor="middle">(SQLCipher)</text><path d="M800,475 h26 l10,10 v36 h-36 z" fill="#fff" stroke="#404040" stroke-width="1.3"/><path d="M826,475 v10 h10" fill="none" stroke="#404040" stroke-width="1.1"/><text x="818.0" y="534" font-size="11" fill="#404040" font-weight="normal" text-anchor="middle">Imagen 896 px</text><path d="M147,155 L260,155 L260,303" fill="none" stroke="#404040" stroke-width="1.6" marker-end="url(#flecha)"/><path d="M335,335 L400,335 L400,187" fill="none" stroke="#404040" stroke-width="1.6" marker-end="url(#flecha)"/><path d="M475,155 L540,155 L540,303" fill="none" stroke="#404040" stroke-width="1.6" marker-end="url(#flecha)"/><path d="M615,335 L666,335" fill="none" stroke="#404040" stroke-width="1.6" marker-end="url(#flecha)"/><path d="M690,311 L690,215 L420,215 L420,189" fill="none" stroke="#404040" stroke-width="1.6" marker-end="url(#flecha)"/><text x="560" y="209" font-size="11" fill="#404040" font-weight="normal" font-style="italic" text-anchor="middle">no: otra toma</text><path d="M714,335 L796,335" fill="none" stroke="#404040" stroke-width="1.6" marker-end="url(#flecha)"/><text x="755" y="327" font-size="11" fill="#404040" font-weight="normal" font-style="italic" text-anchor="middle">sí</text><path d="M820,311 L820,187" fill="none" stroke="#404040" stroke-width="1.6" marker-end="url(#flecha)"/><text x="832" y="285" font-size="11" fill="#404040" font-weight="normal" font-style="italic" text-anchor="middle">no</text><path d="M844,335 L960,335 L960,473" fill="none" stroke="#404040" stroke-width="1.6" marker-end="url(#flecha)"/><text x="900" y="327" font-size="11" fill="#404040" font-weight="normal" font-style="italic" text-anchor="middle">sí</text><path d="M1035,505 L1060,505 L1060,608" fill="none" stroke="#404040" stroke-width="1.6" marker-end="url(#flecha)"/><path d="M895,155 L1160,155 L1160,608" fill="none" stroke="#404040" stroke-width="1.6" marker-end="url(#flecha)"/><path d="M1185,640 L1236,640" fill="none" stroke="#404040" stroke-width="1.6" marker-end="url(#flecha)"/><path d="M1260,616 L1260,187" fill="none" stroke="#404040" stroke-width="1.6" marker-end="url(#flecha)"/><text x="1272" y="590" font-size="11" fill="#404040" font-weight="normal" font-style="italic" text-anchor="middle">sí</text><path d="M1260,123 L1260,100" fill="none" stroke="#404040" stroke-width="1.6" marker-end="url(#flecha)"/><path d="M1284,640 L1340,640 L1340,205 L1410,205 L1410,187" fill="none" stroke="#404040" stroke-width="1.6" marker-end="url(#flecha)"/><text x="1310" y="632" font-size="11" fill="#404040" font-weight="normal" font-style="italic" text-anchor="middle">no</text><path d="M1485,155 L1536,155" fill="none" stroke="#404040" stroke-width="1.6" marker-end="url(#flecha)"/><path d="M1560,179 L1560,230" fill="none" stroke="#404040" stroke-width="1.6" marker-end="url(#flecha)"/><text x="1572" y="207" font-size="11" fill="#404040" font-weight="normal" font-style="italic" text-anchor="middle">sí</text><path d="M1620,255 L1680,255 L1680,179" fill="none" stroke="#404040" stroke-width="1.6" marker-end="url(#flecha)"/><path d="M1584,155 L1656,155" fill="none" stroke="#404040" stroke-width="1.6" marker-end="url(#flecha)"/><text x="1620" y="147" font-size="11" fill="#404040" font-weight="normal" font-style="italic" text-anchor="middle">no</text><path d="M1704,155 L1740,155 L1740,640 L1600,640" fill="none" stroke="#404040" stroke-width="1.6" marker-end="url(#flecha)"/><path d="M1520,672 L1520,732" fill="none" stroke="#404040" stroke-width="1.6" marker-end="url(#flecha)"/><path d="M1600,760 L1673,760" fill="none" stroke="#404040" stroke-width="1.6" marker-end="url(#flecha)"/><line x1="1440" y1="660" x2="1328" y2="750" stroke="#7f7f7f" stroke-width="1.2" stroke-dasharray="2 3"/><line x1="885" y1="505" x2="836" y2="497" stroke="#7f7f7f" stroke-width="1.2" stroke-dasharray="2 3"/><path d="M140,770 h-10 v52 h10" fill="none" stroke="#1f4e79" stroke-width="1.5"/><text x="136" y="786" font-size="11.5" fill="#1f4e79" font-weight="bold" text-anchor="start">Reglas: RF-01 a RF-08 · RNF-04 lectura ≤ 20 s ·</text><text x="136" y="800" font-size="11.5" fill="#1f4e79" font-weight="bold" text-anchor="start">RNF-12 funciona sin red · RNF-14 la imagen no</text><text x="136" y="814" font-size="11.5" fill="#1f4e79" font-weight="bold" text-anchor="start">sale del teléfono</text></svg>