<svg xmlns="http://www.w3.org/2000/svg" xmlns:xlink="http://www.w3.org/1999/xlink" width="1673" height="900" viewBox="0 0 1673 900" font-family="Arial, Helvetica, sans-serif"><defs><marker id="flecha" viewBox="0 0 10 10" refX="9" refY="5" markerWidth="7" markerHeight="7" orient="auto-start-reverse"><path d="M0,0 L10,5 L0,10 z" fill="#404040"/></marker><marker id="flecha_azul" viewBox="0 0 10 10" refX="9" refY="5" markerWidth="7" markerHeight="7" orient="auto-start-reverse"><path d="M0,0 L10,5 L0,10 z" fill="#1f4e79"/></marker><marker id="flecha_verde" viewBox="0 0 10 10" refX="9" refY="5" markerWidth="7" markerHeight="7" orient="auto-start-reverse"><path d="M0,0 L10,5 L0,10 z" fill="#1e7b4f"/></marker><marker id="flecha_roja" viewBox="0 0 10 10" refX="9" refY="5" markerWidth="7" markerHeight="7" orient="auto-start-reverse"><path d="M0,0 L10,5 L0,10 z" fill="#c00000"/></marker><marker id="flecha_gris" viewBox="0 0 10 10" refX="9" refY="5" markerWidth="7" markerHeight="7" orient="auto-start-reverse"><path d="M0,0 L10,5 L0,10 z" fill="#7f7f7f"/></marker><marker id="abierta" viewBox="0 0 10 10" refX="9" refY="5" markerWidth="8" markerHeight="8" orient="auto-start-reverse"><path d="M0,0 L10,5 L0,10" fill="none" stroke="#404040" stroke-width="1.4"/></marker><marker id="triangulo" viewBox="0 0 12 12" refX="11" refY="6" markerWidth="12" markerHeight="12" orient="auto"><path d="M0,0 L12,6 L0,12 z" fill="#fff" stroke="#404040" stroke-width="1.2"/></marker><marker id="rombo" viewBox="0 0 16 10" refX="1" refY="5" markerWidth="16" markerHeight="10" orient="auto"><path d="M1,5 L8,1 L15,5 L8,9 z" fill="#404040"/></marker><marker id="rombo_hueco" viewBox="0 0 16 10" refX="1" refY="5" markerWidth="16" markerHeight="10" orient="auto"><path d="M1,5 L8,1 L15,5 L8,9 z" fill="#fff" stroke="#404040"/></marker><marker id="circulo" viewBox="0 0 10 10" refX="5" refY="5" markerWidth="7" markerHeight="7"><circle cx="5" cy="5" r="4" fill="#fff" stroke="#404040" stroke-width="1.2"/></marker></defs><rect x="0" y="0" width="1673" height="900" rx="0" fill="#ffffff" stroke="none" stroke-width="1.5"/><text x="30" y="40" font-size="22" fill="#1f4e79" font-weight="bold" text-anchor="start">Prototipo de Facturas S20 — Módulo de control de facturas</text><g transform="translate(30.0,62) scale(0.92)"><rect x="0" y="0" width="384" height="784" rx="40" fill="#15191a"/><svg x="12" y="12" width="360" height="760" viewBox="0 0 360 760"><clipPath id="cp09"><rect width="360" height="760" rx="30"/></clipPath><g clip-path="url(#cp09)"><rect x="0" y="0" width="360" height="760" rx="0" fill="#f5f7f6" stroke="none" stroke-width="1.5"/><rect x="0" y="0" width="360" height="84" rx="0" fill="#1b4d45" stroke="none" stroke-width="1.5"/><text x="18" y="17" font-size="12" fill="#ffffff" font-weight="bold" text-anchor="start">9:41</text><rect x="292" y="13.0" width="3" height="4.0" rx="0" fill="#ffffff" stroke="none" stroke-width="1.5"/><rect x="297" y="10.5" width="3" height="6.5" rx="0" fill="#ffffff" stroke="none" stroke-width="1.5"/><rect x="302" y="8.0" width="3" height="9.0" rx="0" fill="#ffffff" stroke="none" stroke-width="1.5"/><rect x="307" y="5.5" width="3" height="11.5" rx="0" fill="#ffffff" stroke="none" stroke-width="1.5"/><rect x="318" y="7" width="22" height="11" rx="2.5" fill="none" stroke="#ffffff" stroke-width="1.2"/><rect x="320" y="9" width="15" height="7" rx="1" fill="#ffffff" stroke="none" stroke-width="1.5"/><rect x="341" y="10" width="2" height="5" rx="0" fill="#ffffff" stroke="none" stroke-width="1.5"/><path d="M28,44 L19,53 L28,62" fill="none" stroke="#ffffff" stroke-width="2.4"/><text x="46" y="52" font-size="18" fill="#ffffff" font-weight="bold" text-anchor="start">Verifique los datos</text><text x="46" y="71" font-size="11.5" fill="#cfe3dd" font-weight="normal" text-anchor="start">Toque un campo para corregirlo</text><rect x="16" y="96" width="328" height="118" rx="12" fill="#3a3530" stroke="none" stroke-width="1.5"/><clipPath id="cf"><rect x="16" y="96" width="328" height="118" rx="12"/></clipPath><g clip-path="url(#cf)"><g><rect x="40" y="104" width="280" height="300" fill="#fffdf8" stroke="#c9c2b3" stroke-width="1.2"/><text x="50" y="122" font-size="16.5" font-weight="bold" fill="#333">DISTRIBUIDORA ANDINA S.A.C.</text><text x="50" y="136" font-size="12.7" fill="#555">RUC 20601234565</text><rect x="180.0" y="144" width="128.8" height="48.0" fill="none" stroke="#777"/><text x="244.39999999999998" y="165.0" font-size="10.8" fill="#333" text-anchor="middle">FACTURA ELECTRÓNICA</text><text x="244.39999999999998" y="183.0" font-size="14.0" fill="#333" font-weight="bold" text-anchor="middle">F001-004821</text><text x="50" y="162" font-size="12.7" fill="#555">Fecha: 22/09/2026</text><line x1="50" y1="230.0" x2="260" y2="230.0" stroke="#d6d0c4" stroke-width="3"/><line x1="270" y1="230.0" x2="308" y2="230.0" stroke="#d6d0c4" stroke-width="3"/><line x1="50" y1="251.0" x2="260" y2="251.0" stroke="#d6d0c4" stroke-width="3"/><line x1="270" y1="251.0" x2="308" y2="251.0" stroke="#d6d0c4" stroke-width="3"/><line x1="50" y1="272.0" x2="260" y2="272.0" stroke="#d6d0c4" stroke-width="3"/><line x1="270" y1="272.0" x2="308" y2="272.0" stroke="#d6d0c4" stroke-width="3"/><line x1="50" y1="293.0" x2="260" y2="293.0" stroke="#d6d0c4" stroke-width="3"/><line x1="270" y1="293.0" x2="308" y2="293.0" stroke="#d6d0c4" stroke-width="3"/><line x1="50" y1="314.0" x2="260" y2="314.0" stroke="#d6d0c4" stroke-width="3"/><line x1="270" y1="314.0" x2="308" y2="314.0" stroke="#d6d0c4" stroke-width="3"/><line x1="50" y1="335.0" x2="260" y2="335.0" stroke="#d6d0c4" stroke-width="3"/><line x1="270" y1="335.0" x2="308" y2="335.0" stroke="#d6d0c4" stroke-width="3"/><text x="308" y="390" font-size="17.5" fill="#222" font-weight="bold" text-anchor="end">TOTAL S/ 1 450,00</text></g></g><rect x="300" y="176" width="32" height="30" rx="8" fill="#000" stroke="none" stroke-width="1.5" opacity="0.55"/><circle cx="314.65" cy="189.65" r="5.4" fill="none" stroke="#ffffff" stroke-width="1.71"/><path d="M318.7,193.7 L323.2,198.2 M312.4,189.65 H316.9 M314.65,187.4 V191.9" fill="none" stroke="#ffffff" stroke-width="1.71"/><rect x="16" y="228" width="328" height="58" rx="10" fill="#ffffff" stroke="#2e7d32" stroke-width="2"/><text x="30" y="248" font-size="11.5" fill="#5e6e6a" font-weight="normal" text-anchor="start">Proveedor</text><text x="30" y="271" font-size="16" fill="#1d2b28" font-weight="bold" text-anchor="start">Distribuidora Andina S.A.C.</text><path d="M315.7,257.0 L320.2,261.5 L328.3,252.5" fill="none" stroke="#2e7d32" stroke-width="1.71"/><rect x="16" y="296" width="328" height="58" rx="10" fill="#ffffff" stroke="#2e7d32" stroke-width="2"/><text x="30" y="316" font-size="11.5" fill="#5e6e6a" font-weight="normal" text-anchor="start">RUC del proveedor</text><text x="30" y="339" font-size="16" fill="#1d2b28" font-weight="bold" text-anchor="start">20601234565</text><path d="M315.7,325.0 L320.2,329.5 L328.3,320.5" fill="none" stroke="#2e7d32" stroke-width="1.71"/><rect x="16" y="364" width="158" height="58" rx="10" fill="#ffffff" stroke="#2e7d32" stroke-width="2"/><text x="30" y="384" font-size="11.5" fill="#5e6e6a" font-weight="normal" text-anchor="start">Serie y número</text><text x="30" y="407" font-size="16" fill="#1d2b28" font-weight="bold" text-anchor="start">F001-004821</text><path d="M145.7,393.0 L150.2,397.5 L158.3,388.5" fill="none" stroke="#2e7d32" stroke-width="1.71"/><rect x="186" y="364" width="158" height="58" rx="10" fill="#ffffff" stroke="#2e7d32" stroke-width="2"/><text x="200" y="384" font-size="11.5" fill="#5e6e6a" font-weight="normal" text-anchor="start">Fecha de emisión</text><text x="200" y="407" font-size="16" fill="#1d2b28" font-weight="bold" text-anchor="start">22/09/2026</text><path d="M315.7,393.0 L320.2,397.5 L328.3,388.5" fill="none" stroke="#2e7d32" stroke-width="1.71"/><rect x="16" y="432" width="100" height="58" rx="10" fill="#ffffff" stroke="#2e7d32" stroke-width="2"/><text x="30" y="452" font-size="11.5" fill="#5e6e6a" font-weight="normal" text-anchor="start">Moneda</text><text x="30" y="475" font-size="16" fill="#1d2b28" font-weight="bold" text-anchor="start">PEN</text><path d="M87.7,461.0 L92.2,465.5 L100.3,456.5" fill="none" stroke="#2e7d32" stroke-width="1.71"/><rect x="128" y="432" width="216" height="58" rx="10" fill="#fff4db" stroke="#f0a202" stroke-width="2"/><text x="142" y="452" font-size="11.5" fill="#5e6e6a" font-weight="normal" text-anchor="start">Importe total</text><text x="142" y="475" font-size="16" fill="#1d2b28" font-weight="bold" text-anchor="start">S/ 1 450,00</text><path d="M322,453.35 L330.1,468.2 H313.9 Z" fill="none" stroke="#f0a202" stroke-width="1.71"/><path d="M322,458.75 V462.8" fill="none" stroke="#f0a202" stroke-width="1.71"/><circle cx="322" cy="465.5" r="1.08" fill="#f0a202" stroke="none" stroke-width="1.5"/><rect x="128" y="498" width="216" height="22" rx="0" fill="none" stroke="none" stroke-width="1.5"/><text x="130" y="508" font-size="11" fill="#9a6a00" font-weight="bold" text-anchor="start">Confianza baja (62 %): compárelo con</text><text x="130" y="522" font-size="11" fill="#9a6a00" font-weight="bold" text-anchor="start">el total impreso en la factura.</text><rect x="16" y="502" width="110.5" height="20" rx="10" fill="#e3efe9" stroke="none" stroke-width="1.5"/><text x="71.25" y="516" font-size="10.5" fill="#1b4d45" font-weight="bold" text-anchor="middle">7 campos leídos</text><rect x="16" y="614" width="328" height="48" rx="24.0" fill="#1b4d45" stroke="#1b4d45" stroke-width="1.5"/><text x="180.0" y="643.5" font-size="15" fill="#ffffff" font-weight="bold" text-anchor="middle">Guardar factura</text><rect x="16" y="672" width="328" height="48" rx="24.0" fill="none" stroke="none" stroke-width="1.5"/><text x="180.0" y="701.5" font-size="15" fill="#1b4d45" font-weight="bold" text-anchor="middle">Tomar otra foto</text><rect x="0" y="0" width="360" height="760" rx="0" fill="#000" stroke="none" stroke-width="1.5" opacity="0.55"/><rect x="24" y="210" width="312" height="330" rx="20" fill="#ffffff" stroke="none" stroke-width="1"/><circle cx="180" cy="262" r="30" fill="#fff4db" stroke="none" stroke-width="1.5"/><path d="M180,249.25 L193.5,274.0 H166.5 Z" fill="none" stroke="#f0a202" stroke-width="2.8499999999999996"/><path d="M180,258.25 V265.0" fill="none" stroke="#f0a202" stroke-width="2.8499999999999996"/><circle cx="180" cy="269.5" r="1.7999999999999998" fill="#f0a202" stroke="none" stroke-width="1.5"/><text x="180" y="322" font-size="18" fill="#1d2b28" font-weight="bold" text-anchor="middle">Esta factura ya está</text><text x="180" y="346" font-size="18" fill="#1d2b28" font-weight="bold" text-anchor="middle">registrada</text><rect x="44" y="366" width="272" height="70" rx="14" fill="#f7f9f8" stroke="#dfe5e3" stroke-width="1"/><text x="58" y="390" font-size="12.5" fill="#1d2b28" font-weight="bold" text-anchor="start">F001-004821 · Distribuidora Andina</text><text x="58" y="410" font-size="12" fill="#5e6e6a" font-weight="normal" text-anchor="start">Guardada el 22/09/2026 · S/ 1 450,00</text><text x="58" y="426" font-size="11" fill="#5e6e6a" font-weight="normal" text-anchor="start">Se detectó por RUC + serie + número</text><rect x="44" y="452" width="272" height="44" rx="22.0" fill="#1b4d45" stroke="#1b4d45" stroke-width="1.5"/><text x="180.0" y="479.5" font-size="15" fill="#ffffff" font-weight="bold" text-anchor="middle">Ver la registrada</text><rect x="44" y="500" width="272" height="34" rx="17.0" fill="none" stroke="none" stroke-width="1.5"/><text x="180.0" y="522.5" font-size="15" fill="#1b4d45" font-weight="bold" text-anchor="middle">Descartar esta foto</text></g></svg><rect x="152.0" y="16" width="80" height="6" rx="3" fill="#15191a"/></g><circle cx="50.0" cy="817.2800000000001" r="17" fill="#1f4e79"/><text x="50.0" y="822.7800000000001" font-size="15" font-weight="bold" fill="#fff" text-anchor="middle">P09</text><text x="76.0" y="823.2800000000001" font-size="17" font-weight="bold" fill="#262626">Aviso de duplicado</text><g transform="translate(433.28000000000003,62) scale(0.92)"><rect x="0" y="0" width="384" height="784" rx="40" fill="#15191a"/><svg x="12" y="12" width="360" height="760" viewBox="0 0 360 760"><clipPath id="cp10"><rect width="360" height="760" rx="30"/></clipPath><g clip-path="url(#cp10)"><rect x="0" y="0" width="360" height="760" rx="0" fill="#ffffff" stroke="none" stroke-width="1.5"/><text x="18" y="17" font-size="12" fill="#1d2b28" font-weight="bold" text-anchor="start">9:41</text><rect x="292" y="13.0" width="3" height="4.0" rx="0" fill="#1d2b28" stroke="none" stroke-width="1.5"/><rect x="297" y="10.5" width="3" height="6.5" rx="0" fill="#1d2b28" stroke="none" stroke-width="1.5"/><rect x="302" y="8.0" width="3" height="9.0" rx="0" fill="#1d2b28" stroke="none" stroke-width="1.5"/><rect x="307" y="5.5" width="3" height="11.5" rx="0" fill="#1d2b28" stroke="none" stroke-width="1.5"/><rect x="318" y="7" width="22" height="11" rx="2.5" fill="none" stroke="#1d2b28" stroke-width="1.2"/><rect x="320" y="9" width="15" height="7" rx="1" fill="#1d2b28" stroke="none" stroke-width="1.5"/><rect x="341" y="10" width="2" height="5" rx="0" fill="#1d2b28" stroke="none" stroke-width="1.5"/><circle cx="180" cy="170" r="64" fill="#e8f5e9" stroke="none" stroke-width="1.5"/><circle cx="180" cy="170" r="44" fill="#2e7d32" stroke="none" stroke-width="1.5"/><path d="M164.6,170.0 L175.6,181.0 L195.4,159.0" fill="none" stroke="#ffffff" stroke-width="4.18"/><text x="180" y="276" font-size="24" fill="#1b4d45" font-weight="bold" text-anchor="middle">Factura guardada</text><text x="180" y="302" font-size="13" fill="#5e6e6a" font-weight="normal" text-anchor="middle">Distribuidora Andina · F001-004821</text><text x="180" y="348" font-size="30" fill="#5f8f2a" font-weight="bold" text-anchor="middle">+ S/ 1 450,00</text><rect x="24" y="380" width="312" height="150" rx="14" fill="#ffffff" stroke="#dfe5e3" stroke-width="1"/><text x="40" y="410" font-size="13" fill="#5e6e6a" font-weight="normal" text-anchor="start">Compras de septiembre</text><text x="40" y="442" font-size="24" fill="#1d2b28" font-weight="bold" text-anchor="start">S/ 4 120,50</text><rect x="40" y="462" width="280" height="12" rx="6.0" fill="#e6ecea" stroke="none" stroke-width="1.5"/><rect x="40" y="462" width="230.72" height="12" rx="6.0" fill="#f0a202" stroke="none" stroke-width="1.5"/><line x1="264.0" y1="458" x2="264.0" y2="478" stroke="#1d2b28" stroke-width="1.5"/><path d="M50,496.35 L58.1,511.2 H41.9 Z" fill="none" stroke="#f0a202" stroke-width="1.71"/><path d="M50,501.75 V505.8" fill="none" stroke="#f0a202" stroke-width="1.71"/><circle cx="50" cy="508.5" r="1.08" fill="#f0a202" stroke="none" stroke-width="1.5"/><text x="68" y="509" font-size="12" fill="#9a6a00" font-weight="bold" text-anchor="start">Superó el 80 % del límite de la categoría 1</text><rect x="24" y="580" width="312" height="48" rx="24.0" fill="#8bc34a" stroke="#8bc34a" stroke-width="1.5"/><rect x="69.7" y="599.5" width="16.2" height="11.700000000000001" rx="2.7" fill="none" stroke="#ffffff" stroke-width="1.71"/><circle cx="77.8" cy="605.35" r="3.6" fill="none" stroke="#ffffff" stroke-width="1.71"/><path d="M74.2,599.5 l2,-3 h3.6 l2,3" fill="none" stroke="#ffffff" stroke-width="1.71"/><text x="190.0" y="609.5" font-size="15" fill="#ffffff" font-weight="bold" text-anchor="middle">Escanear otra factura</text><rect x="24" y="640" width="312" height="48" rx="24.0" fill="#ffffff" stroke="#1b4d45" stroke-width="1.5"/><text x="180.0" y="669.5" font-size="15" fill="#1b4d45" font-weight="bold" text-anchor="middle">Ir al inicio</text></g></svg><rect x="152.0" y="16" width="80" height="6" rx="3" fill="#15191a"/></g><circle cx="453.28000000000003" cy="817.2800000000001" r="17" fill="#1f4e79"/><text x="453.28000000000003" y="822.7800000000001" font-size="15" font-weight="bold" fill="#fff" text-anchor="middle">P10</text><text x="479.28000000000003" y="823.2800000000001" font-size="17" font-weight="bold" fill="#262626">Factura guardada</text><g transform="translate(836.5600000000001,62) scale(0.92)"><rect x="0" y="0" width="384" height="784" rx="40" fill="#15191a"/><svg x="12" y="12" width="360" height="760" viewBox="0 0 360 760"><clipPath id="cp11"><rect width="360" height="760" rx="30"/></clipPath><g clip-path="url(#cp11)"><rect x="0" y="0" width="360" height="760" rx="0" fill="#f5f7f6" stroke="none" stroke-width="1.5"/><rect x="0" y="0" width="360" height="84" rx="0" fill="#1b4d45" stroke="none" stroke-width="1.5"/><text x="18" y="17" font-size="12" fill="#ffffff" font-weight="bold" text-anchor="start">9:41</text><rect x="292" y="13.0" width="3" height="4.0" rx="0" fill="#ffffff" stroke="none" stroke-width="1.5"/><rect x="297" y="10.5" width="3" height="6.5" rx="0" fill="#ffffff" stroke="none" stroke-width="1.5"/><rect x="302" y="8.0" width="3" height="9.0" rx="0" fill="#ffffff" stroke="none" stroke-width="1.5"/><rect x="307" y="5.5" width="3" height="11.5" rx="0" fill="#ffffff" stroke="none" stroke-width="1.5"/><rect x="318" y="7" width="22" height="11" rx="2.5" fill="none" stroke="#ffffff" stroke-width="1.2"/><rect x="320" y="9" width="15" height="7" rx="1" fill="#ffffff" stroke="none" stroke-width="1.5"/><rect x="341" y="10" width="2" height="5" rx="0" fill="#ffffff" stroke="none" stroke-width="1.5"/><text x="18" y="58" font-size="18" fill="#ffffff" font-weight="bold" text-anchor="start">Facturas de septiembre</text><circle cx="320.5" cy="50.5" r="6.0" fill="none" stroke="#ffffff" stroke-width="1.9"/><path d="M325.0,55.0 L330.0,60.0" fill="none" stroke="#ffffff" stroke-width="1.9"/><rect x="16" y="96" width="88.0" height="30" rx="15" fill="#1b4d45" stroke="#1b4d45" stroke-width="1.2"/><text x="60.0" y="115" font-size="11.5" fill="#ffffff" font-weight="bold" text-anchor="middle">Todas (12)</text><rect x="112.0" y="96" width="107.8" height="30" rx="15" fill="#ffffff" stroke="#dfe5e3" stroke-width="1.2"/><text x="165.9" y="115" font-size="11.5" fill="#1d2b28" font-weight="normal" text-anchor="middle">Leídas por IA</text><rect x="227.8" y="96" width="74.8" height="30" rx="15" fill="#ffffff" stroke="#dfe5e3" stroke-width="1.2"/><text x="265.2" y="115" font-size="11.5" fill="#1d2b28" font-weight="normal" text-anchor="middle">Manuales</text><rect x="310.6" y="96" width="74.8" height="30" rx="15" fill="#ffffff" stroke="#dfe5e3" stroke-width="1.2"/><text x="348.0" y="115" font-size="11.5" fill="#1d2b28" font-weight="normal" text-anchor="middle">Anuladas</text><text x="16" y="152" font-size="12" fill="#5e6e6a" font-weight="bold" text-anchor="start">Semana del 21 al 27</text><rect x="16" y="162" width="328" height="68" rx="12" fill="#ffffff" stroke="#dfe5e3" stroke-width="1"/><circle cx="44" cy="196" r="17" fill="#e3efe9" stroke="none" stroke-width="1.5"/><text x="44" y="201" font-size="14" fill="#1b4d45" font-weight="bold" text-anchor="middle">D</text><text x="72" y="188" font-size="13" fill="#1d2b28" font-weight="bold" text-anchor="start">Distribuidora Andina S.A.C.</text><text x="72" y="207" font-size="11.5" fill="#5e6e6a" font-weight="normal" text-anchor="start">F001-004821 · 22/09/2026</text><text x="332" y="190" font-size="13.5" fill="#1d2b28" font-weight="bold" text-anchor="end">S/ 1 450,00</text><rect x="303.4" y="200" width="28.6" height="20" rx="10" fill="#e3efe9" stroke="none" stroke-width="1.5"/><text x="317.7" y="214" font-size="10.5" fill="#1b4d45" font-weight="bold" text-anchor="middle">IA</text><rect x="16" y="238" width="328" height="68" rx="12" fill="#ffffff" stroke="#dfe5e3" stroke-width="1"/><circle cx="44" cy="272" r="17" fill="#e3efe9" stroke="none" stroke-width="1.5"/><text x="44" y="277" font-size="14" fill="#1b4d45" font-weight="bold" text-anchor="middle">C</text><text x="72" y="264" font-size="13" fill="#1d2b28" font-weight="bold" text-anchor="start">Comercial Lima Norte S.A.C.</text><text x="72" y="283" font-size="11.5" fill="#5e6e6a" font-weight="normal" text-anchor="start">F002-000915 · 20/09/2026</text><text x="332" y="266" font-size="13.5" fill="#1d2b28" font-weight="bold" text-anchor="end">S/ 386,40</text><rect x="303.4" y="276" width="28.6" height="20" rx="10" fill="#e3efe9" stroke="none" stroke-width="1.5"/><text x="317.7" y="290" font-size="10.5" fill="#1b4d45" font-weight="bold" text-anchor="middle">IA</text><text x="16" y="326" font-size="12" fill="#5e6e6a" font-weight="bold" text-anchor="start">Semana del 14 al 20</text><rect x="16" y="332" width="328" height="68" rx="12" fill="#ffffff" stroke="#dfe5e3" stroke-width="1"/><circle cx="44" cy="366" r="17" fill="#e3efe9" stroke="none" stroke-width="1.5"/><text x="44" y="371" font-size="14" fill="#1b4d45" font-weight="bold" text-anchor="middle">M</text><text x="72" y="358" font-size="13" fill="#1d2b28" font-weight="bold" text-anchor="start">Molinos del Sur S.A.</text><text x="72" y="377" font-size="11.5" fill="#5e6e6a" font-weight="normal" text-anchor="start">E001-001284 · 18/09/2026</text><text x="332" y="360" font-size="13.5" fill="#1d2b28" font-weight="bold" text-anchor="end">S/ 612,00</text><rect x="303.4" y="370" width="28.6" height="20" rx="10" fill="#e3efe9" stroke="none" stroke-width="1.5"/><text x="317.7" y="384" font-size="10.5" fill="#1b4d45" font-weight="bold" text-anchor="middle">IA</text><rect x="16" y="408" width="328" height="68" rx="12" fill="#ffffff" stroke="#dfe5e3" stroke-width="1"/><circle cx="44" cy="442" r="17" fill="#e3efe9" stroke="none" stroke-width="1.5"/><text x="44" y="447" font-size="14" fill="#1b4d45" font-weight="bold" text-anchor="middle">B</text><text x="72" y="434" font-size="13" fill="#1d2b28" font-weight="bold" text-anchor="start">Bebidas Rímac S.A.C.</text><text x="72" y="453" font-size="11.5" fill="#5e6e6a" font-weight="normal" text-anchor="start">F003-007712 · 15/09/2026</text><text x="332" y="436" font-size="13.5" fill="#1d2b28" font-weight="bold" text-anchor="end">S/ 540,10</text><rect x="278.2" y="446" width="53.8" height="20" rx="10" fill="#eef1f0" stroke="none" stroke-width="1.5"/><text x="305.09999999999997" y="460" font-size="10.5" fill="#5e6e6a" font-weight="bold" text-anchor="middle">manual</text><rect x="16" y="484" width="328" height="68" rx="12" fill="#ffffff" stroke="#dfe5e3" stroke-width="1"/><circle cx="44" cy="518" r="17" fill="#e3efe9" stroke="none" stroke-width="1.5"/><text x="44" y="523" font-size="14" fill="#1b4d45" font-weight="bold" text-anchor="middle">L</text><text x="72" y="510" font-size="13" fill="#1d2b28" font-weight="bold" text-anchor="start">Lácteos San Juan E.I.R.L.</text><text x="72" y="529" font-size="11.5" fill="#5e6e6a" font-weight="normal" text-anchor="start">F001-002231 · 12/09/2026</text><text x="332" y="512" font-size="13.5" fill="#1d2b28" font-weight="bold" text-anchor="end">S/ 298,00</text><rect x="303.4" y="522" width="28.6" height="20" rx="10" fill="#e3efe9" stroke="none" stroke-width="1.5"/><text x="317.7" y="536" font-size="10.5" fill="#1b4d45" font-weight="bold" text-anchor="middle">IA</text><rect x="16" y="560" width="328" height="68" rx="12" fill="#ffffff" stroke="#dfe5e3" stroke-width="1"/><circle cx="44" cy="594" r="17" fill="#e3efe9" stroke="none" stroke-width="1.5"/><text x="44" y="599" font-size="14" fill="#1b4d45" font-weight="bold" text-anchor="middle">D</text><text x="72" y="586" font-size="13" fill="#1d2b28" font-weight="bold" text-anchor="start">Distribuidora Andina S.A.C.</text><text x="72" y="605" font-size="11.5" fill="#5e6e6a" font-weight="normal" text-anchor="start">F001-004655 · 08/09/2026</text><text x="332" y="588" font-size="13.5" fill="#1d2b28" font-weight="bold" text-anchor="end">S/ 214,00</text><rect x="303.4" y="598" width="28.6" height="20" rx="10" fill="#e3efe9" stroke="none" stroke-width="1.5"/><text x="317.7" y="612" font-size="10.5" fill="#1b4d45" font-weight="bold" text-anchor="middle">IA</text><rect x="0" y="652" width="360" height="48" rx="0" fill="#eef6e4" stroke="none" stroke-width="1.5"/><text x="16" y="682" font-size="13" fill="#1d2b28" font-weight="normal" text-anchor="start">Total del mes (12 facturas)</text><text x="344" y="682" font-size="15" fill="#1b4d45" font-weight="bold" text-anchor="end">S/ 4 120,50</text><rect x="0" y="700" width="360" height="60" rx="0" fill="#ffffff" stroke="none" stroke-width="1.5"/><line x1="0" y1="700" x2="360" y2="700" stroke="#dfe5e3" stroke-width="1"/><path d="M28.0,722.0 L36,714.0 L44.0,722.0 M30.0,720.0 V730.0 H42.0 V720.0" fill="none" stroke="#8a9a96" stroke-width="1.9"/><text x="36" y="748" font-size="10.5" fill="#8a9a96" font-weight="normal" text-anchor="middle">Inicio</text><path d="M104.0,716.0 H116.0" fill="none" stroke="#1b4d45" stroke-width="1.9"/><circle cx="100.5" cy="716.0" r="1.4" fill="#1b4d45" stroke="none" stroke-width="1.5"/><path d="M104.0,722.0 H116.0" fill="none" stroke="#1b4d45" stroke-width="1.9"/><circle cx="100.5" cy="722.0" r="1.4" fill="#1b4d45" stroke="none" stroke-width="1.5"/><path d="M104.0,728.0 H116.0" fill="none" stroke="#1b4d45" stroke-width="1.9"/><circle cx="100.5" cy="728.0" r="1.4" fill="#1b4d45" stroke="none" stroke-width="1.5"/><text x="108" y="748" font-size="10.5" fill="#1b4d45" font-weight="bold" text-anchor="middle">Facturas</text><circle cx="180" cy="706" r="30" fill="#8bc34a" stroke="#ffffff" stroke-width="4"/><rect x="169.2" y="700.0" width="21.599999999999998" height="15.6" rx="3.5999999999999996" fill="none" stroke="#ffffff" stroke-width="2.28"/><circle cx="180" cy="707.8" r="4.8" fill="none" stroke="#ffffff" stroke-width="2.28"/><path d="M175.2,700.0 l2,-3 h4.8 l2,3" fill="none" stroke="#ffffff" stroke-width="2.28"/><text x="180" y="752" font-size="10.5" fill="#1b4d45" font-weight="bold" text-anchor="middle">Escanear</text><rect x="244.0" y="724.0" width="4.0" height="6.0" rx="1" fill="none" stroke="#8a9a96" stroke-width="1.9"/><rect x="250.0" y="719.0" width="4.0" height="11.0" rx="1" fill="none" stroke="#8a9a96" stroke-width="1.9"/><rect x="256.0" y="714.0" width="4.0" height="16.0" rx="1" fill="none" stroke="#8a9a96" stroke-width="1.9"/><text x="252" y="748" font-size="10.5" fill="#8a9a96" font-weight="normal" text-anchor="middle">Mes</text><circle cx="324" cy="722" r="3.5" fill="none" stroke="#8a9a96" stroke-width="1.9"/><circle cx="324" cy="722" r="8.0" fill="none" stroke="#8a9a96" stroke-width="1.9" stroke-dasharray="3.0 2.2"/><text x="324" y="748" font-size="10.5" fill="#8a9a96" font-weight="normal" text-anchor="middle">Ajustes</text></g></svg><rect x="152.0" y="16" width="80" height="6" rx="3" fill="#15191a"/></g><circle cx="856.5600000000001" cy="817.2800000000001" r="17" fill="#1f4e79"/><text x="856.5600000000001" y="822.7800000000001" font-size="15" font-weight="bold" fill="#fff" text-anchor="middle">P11</text><text x="882.5600000000001" y="823.2800000000001" font-size="17" font-weight="bold" fill="#262626">Facturas del mes</text><g transform="translate(1239.8400000000001,62) scale(0.92)"><rect x="0" y="0" width="384" height="784" rx="40" fill="#15191a"/><svg x="12" y="12" width="360" height="760" viewBox="0 0 360 760"><clipPath id="cp12"><rect width="360" height="760" rx="30"/></clipPath><g clip-path="url(#cp12)"><rect x="0" y="0" width="360" height="760" rx="0" fill="#f5f7f6" stroke="none" stroke-width="1.5"/><rect x="0" y="0" width="360" height="84" rx="0" fill="#1b4d45" stroke="none" stroke-width="1.5"/><text x="18" y="17" font-size="12" fill="#ffffff" font-weight="bold" text-anchor="start">9:41</text><rect x="292" y="13.0" width="3" height="4.0" rx="0" fill="#ffffff" stroke="none" stroke-width="1.5"/><rect x="297" y="10.5" width="3" height="6.5" rx="0" fill="#ffffff" stroke="none" stroke-width="1.5"/><rect x="302" y="8.0" width="3" height="9.0" rx="0" fill="#ffffff" stroke="none" stroke-width="1.5"/><rect x="307" y="5.5" width="3" height="11.5" rx="0" fill="#ffffff" stroke="none" stroke-width="1.5"/><rect x="318" y="7" width="22" height="11" rx="2.5" fill="none" stroke="#ffffff" stroke-width="1.2"/><rect x="320" y="9" width="15" height="7" rx="1" fill="#ffffff" stroke="none" stroke-width="1.5"/><rect x="341" y="10" width="2" height="5" rx="0" fill="#ffffff" stroke="none" stroke-width="1.5"/><path d="M28,44 L19,53 L28,62" fill="none" stroke="#ffffff" stroke-width="2.4"/><text x="46" y="58" font-size="18" fill="#ffffff" font-weight="bold" text-anchor="start">Detalle de factura</text><circle cx="327.0" cy="46.0" r="2.6" fill="none" stroke="#ffffff" stroke-width="1.9"/><circle cx="317.0" cy="52.0" r="2.6" fill="none" stroke="#ffffff" stroke-width="1.9"/><circle cx="327.0" cy="58.0" r="2.6" fill="none" stroke="#ffffff" stroke-width="1.9"/><path d="M319.3,50.8 L324.7,47.2 M319.3,53.2 L324.7,56.8" fill="none" stroke="#ffffff" stroke-width="1.9"/><rect x="16" y="96" width="328" height="100" rx="12" fill="#3a3530" stroke="none" stroke-width="1.5"/><clipPath id="cd"><rect x="16" y="96" width="328" height="100" rx="12"/></clipPath><g clip-path="url(#cd)"><g><rect x="40" y="104" width="280" height="300" fill="#fffdf8" stroke="#c9c2b3" stroke-width="1.2"/><text x="50" y="122" font-size="16.5" font-weight="bold" fill="#333">COMERCIAL LIMA NORTE S.A.C.</text><text x="50" y="136" font-size="12.7" fill="#555">RUC 20512345671</text><rect x="180.0" y="144" width="128.8" height="48.0" fill="none" stroke="#777"/><text x="244.39999999999998" y="165.0" font-size="10.8" fill="#333" text-anchor="middle">FACTURA ELECTRÓNICA</text><text x="244.39999999999998" y="183.0" font-size="14.0" fill="#333" font-weight="bold" text-anchor="middle">F002-000915</text><text x="50" y="162" font-size="12.7" fill="#555">Fecha: 20/09/2026</text><line x1="50" y1="230.0" x2="260" y2="230.0" stroke="#d6d0c4" stroke-width="3"/><line x1="270" y1="230.0" x2="308" y2="230.0" stroke="#d6d0c4" stroke-width="3"/><line x1="50" y1="251.0" x2="260" y2="251.0" stroke="#d6d0c4" stroke-width="3"/><line x1="270" y1="251.0" x2="308" y2="251.0" stroke="#d6d0c4" stroke-width="3"/><line x1="50" y1="272.0" x2="260" y2="272.0" stroke="#d6d0c4" stroke-width="3"/><line x1="270" y1="272.0" x2="308" y2="272.0" stroke="#d6d0c4" stroke-width="3"/><line x1="50" y1="293.0" x2="260" y2="293.0" stroke="#d6d0c4" stroke-width="3"/><line x1="270" y1="293.0" x2="308" y2="293.0" stroke="#d6d0c4" stroke-width="3"/><line x1="50" y1="314.0" x2="260" y2="314.0" stroke="#d6d0c4" stroke-width="3"/><line x1="270" y1="314.0" x2="308" y2="314.0" stroke="#d6d0c4" stroke-width="3"/><line x1="50" y1="335.0" x2="260" y2="335.0" stroke="#d6d0c4" stroke-width="3"/><line x1="270" y1="335.0" x2="308" y2="335.0" stroke="#d6d0c4" stroke-width="3"/><text x="308" y="390" font-size="17.5" fill="#222" font-weight="bold" text-anchor="end">TOTAL S/ 386,40</text></g></g><rect x="16" y="208" width="328" height="200" rx="14" fill="#ffffff" stroke="#dfe5e3" stroke-width="1"/><text x="30" y="236" font-size="12" fill="#5e6e6a" font-weight="normal" text-anchor="start">Proveedor</text><text x="330" y="236" font-size="12.5" fill="#1d2b28" font-weight="bold" text-anchor="end">Comercial Lima Norte S.A.C.</text><text x="30" y="266" font-size="12" fill="#5e6e6a" font-weight="normal" text-anchor="start">RUC</text><text x="330" y="266" font-size="12.5" fill="#1d2b28" font-weight="bold" text-anchor="end">20512345671</text><text x="30" y="296" font-size="12" fill="#5e6e6a" font-weight="normal" text-anchor="start">Serie y número</text><text x="330" y="296" font-size="12.5" fill="#1d2b28" font-weight="bold" text-anchor="end">F002-000915</text><text x="30" y="326" font-size="12" fill="#5e6e6a" font-weight="normal" text-anchor="start">Fecha de emisión</text><text x="330" y="326" font-size="12.5" fill="#1d2b28" font-weight="bold" text-anchor="end">20/09/2026</text><text x="30" y="356" font-size="12" fill="#5e6e6a" font-weight="normal" text-anchor="start">Importe total</text><text x="330" y="356" font-size="12.5" fill="#1d2b28" font-weight="bold" text-anchor="end">S/ 386,40</text><text x="30" y="386" font-size="12" fill="#5e6e6a" font-weight="normal" text-anchor="start">Registro</text><text x="330" y="386" font-size="12.5" fill="#1d2b28" font-weight="bold" text-anchor="end">Leída por IA · 1 campo corregido</text><rect x="0" y="0" width="360" height="760" rx="0" fill="#000" stroke="none" stroke-width="1.5" opacity="0.45"/><rect x="0" y="418" width="360" height="342" rx="22" fill="#ffffff" stroke="none" stroke-width="1.5"/><rect x="160" y="428" width="40" height="5" rx="2.5" fill="#cfd8d5" stroke="none" stroke-width="1.5"/><path d="M27.0,457.0 H41.0 M29.0,457.0 L30.0,470.0 H38.0 L39.0,457.0 M32.0,457.0 V454.5 H36.0 V457.0" fill="none" stroke="#c62828" stroke-width="1.9"/><text x="56" y="468" font-size="17" fill="#1d2b28" font-weight="bold" text-anchor="start">Anular esta factura</text><text x="24" y="494" font-size="12.5" fill="#5e6e6a" font-weight="normal" text-anchor="start">Se descontará S/ 386,40 del total del mes.</text><circle cx="38" cy="528" r="10" fill="none" stroke="#1b4d45" stroke-width="2"/><circle cx="38" cy="528" r="5" fill="#1b4d45" stroke="none" stroke-width="1.5"/><text x="58" y="533" font-size="14" fill="#1d2b28" font-weight="normal" text-anchor="start">Registrada por error</text><circle cx="38" cy="570" r="10" fill="none" stroke="#9aa8a4" stroke-width="2"/><text x="58" y="575" font-size="14" fill="#1d2b28" font-weight="normal" text-anchor="start">Es un duplicado</text><circle cx="38" cy="612" r="10" fill="none" stroke="#9aa8a4" stroke-width="2"/><text x="58" y="617" font-size="14" fill="#1d2b28" font-weight="normal" text-anchor="start">Mercadería devuelta al proveedor</text><rect x="24" y="650" width="312" height="48" rx="24.0" fill="#ffffff" stroke="#c62828" stroke-width="1.5"/><text x="180.0" y="679.5" font-size="15" fill="#c62828" font-weight="bold" text-anchor="middle">Anular y recalcular el mes</text><rect x="24" y="704" width="312" height="40" rx="20.0" fill="none" stroke="none" stroke-width="1.5"/><text x="180.0" y="729.5" font-size="15" fill="#1b4d45" font-weight="bold" text-anchor="middle">Cancelar</text></g></svg><rect x="152.0" y="16" width="80" height="6" rx="3" fill="#15191a"/></g><circle cx="1259.8400000000001" cy="817.2800000000001" r="17" fill="#1f4e79"/><text x="1259.8400000000001" y="822.7800000000001" font-size="15" font-weight="bold" fill="#fff" text-anchor="middle">P12</text><text x="1285.8400000000001" y="823.2800000000001" font-size="17" font-weight="bold" fill="#262626">Detalle y anulación</text></svg>