<svg xmlns="http://www.w3.org/2000/svg" xmlns:xlink="http://www.w3.org/1999/xlink" width="900" height="1200" viewBox="0 0 900 1200" font-family="Arial, Helvetica, sans-serif"><defs><marker id="flecha" viewBox="0 0 10 10" refX="9" refY="5" markerWidth="7" markerHeight="7" orient="auto-start-reverse"><path d="M0,0 L10,5 L0,10 z" fill="#404040"/></marker><marker id="flecha_azul" viewBox="0 0 10 10" refX="9" refY="5" markerWidth="7" markerHeight="7" orient="auto-start-reverse"><path d="M0,0 L10,5 L0,10 z" fill="#1f4e79"/></marker><marker id="flecha_verde" viewBox="0 0 10 10" refX="9" refY="5" markerWidth="7" markerHeight="7" orient="auto-start-reverse"><path d="M0,0 L10,5 L0,10 z" fill="#1e7b4f"/></marker><marker id="flecha_roja" viewBox="0 0 10 10" refX="9" refY="5" markerWidth="7" markerHeight="7" orient="auto-start-reverse"><path d="M0,0 L10,5 L0,10 z" fill="#c00000"/></marker><marker id="flecha_gris" viewBox="0 0 10 10" refX="9" refY="5" markerWidth="7" markerHeight="7" orient="auto-start-reverse"><path d="M0,0 L10,5 L0,10 z" fill="#7f7f7f"/></marker><marker id="abierta" viewBox="0 0 10 10" refX="9" refY="5" markerWidth="8" markerHeight="8" orient="auto-start-reverse"><path d="M0,0 L10,5 L0,10" fill="none" stroke="#404040" stroke-width="1.4"/></marker><marker id="triangulo" viewBox="0 0 12 12" refX="11" refY="6" markerWidth="12" markerHeight="12" orient="auto"><path d="M0,0 L12,6 L0,12 z" fill="#fff" stroke="#404040" stroke-width="1.2"/></marker><marker id="rombo" viewBox="0 0 16 10" refX="1" refY="5" markerWidth="16" markerHeight="10" orient="auto"><path d="M1,5 L8,1 L15,5 L8,9 z" fill="#404040"/></marker><marker id="rombo_hueco" viewBox="0 0 16 10" refX="1" refY="5" markerWidth="16" markerHeight="10" orient="auto"><path d="M1,5 L8,1 L15,5 L8,9 z" fill="#fff" stroke="#404040"/></marker><marker id="circulo" viewBox="0 0 10 10" refX="5" refY="5" markerWidth="7" markerHeight="7"><circle cx="5" cy="5" r="4" fill="#fff" stroke="#404040" stroke-width="1.2"/></marker></defs><rect x="0" y="0" width="900" height="1200" rx="0" fill="#e9ecef" stroke="none" stroke-width="1.5"/><rect x="50" y="30" width="800" height="1140" rx="0" fill="#fff" stroke="#a6a6a6" stroke-width="1"/><rect x="50" y="30" width="800" height="110" rx="0" fill="#1b4d45" stroke="none" stroke-width="1.5"/><text x="80" y="78" font-size="26" fill="#fff" font-weight="bold" text-anchor="start">Reporte mensual de compras</text><text x="80" y="108" font-size="14" fill="#cfe3dd" font-weight="normal" text-anchor="start">Período: septiembre 2026 · Generado por Facturas S20 el 26/09/2026 18:42</text><circle cx="790" cy="85" r="30" fill="#fff" stroke="none" stroke-width="1.5"/><text x="790" y="93" font-size="18" fill="#1b4d45" font-weight="bold" text-anchor="middle">S20</text><text x="80" y="178" font-size="13" fill="#5e6e6a" font-weight="normal" text-anchor="start">Contribuyente</text><text x="80" y="200" font-size="16" fill="#1d2b28" font-weight="bold" text-anchor="start">Rosa Huamán Quispe — Bodega El Progreso</text><text x="80" y="222" font-size="14" fill="#1d2b28" font-weight="normal" text-anchor="start">RUC 10456789124 · Nuevo Régimen Único Simplificado</text><rect x="80" y="246" width="740" height="140" rx="8" fill="#f3f8f6" stroke="#d7e6e0" stroke-width="1"/><text x="100" y="274" font-size="14" fill="#1d2b28" font-weight="normal" text-anchor="start">Compras del mes (12 facturas)</text><text x="800" y="274" font-size="14" fill="#1d2b28" font-weight="bold" text-anchor="end">S/ 4 120,50</text><text x="100" y="298" font-size="14" fill="#1d2b28" font-weight="normal" text-anchor="start">Ventas del mes (declaradas por el titular)</text><text x="800" y="298" font-size="14" fill="#1d2b28" font-weight="bold" text-anchor="end">S/ 3 900,00</text><text x="100" y="322" font-size="14" fill="#1d2b28" font-weight="normal" text-anchor="start">Monto determinante (el mayor)</text><text x="800" y="322" font-size="14" fill="#1d2b28" font-weight="bold" text-anchor="end">S/ 4 120,50</text><text x="100" y="346" font-size="14" fill="#1d2b28" font-weight="normal" text-anchor="start">Categoría y cuota</text><text x="800" y="346" font-size="14" fill="#1d2b28" font-weight="bold" text-anchor="end">Categoría 1 · S/ 20,00</text><text x="100" y="370" font-size="14" fill="#1d2b28" font-weight="normal" text-anchor="start">Vencimiento (último dígito del RUC: 4)</text><text x="800" y="370" font-size="14" fill="#1d2b28" font-weight="bold" text-anchor="end">15/10/2026</text><text x="80" y="420" font-size="17" fill="#1d2b28" font-weight="bold" text-anchor="start">Detalle de facturas de compra</text><rect x="80" y="436" width="740" height="32" rx="0" fill="#1b4d45" stroke="none" stroke-width="1.5"/><text x="90" y="457" font-size="12.5" fill="#fff" font-weight="bold" text-anchor="start">N.º</text><text x="130" y="457" font-size="12.5" fill="#fff" font-weight="bold" text-anchor="start">Fecha</text><text x="230" y="457" font-size="12.5" fill="#fff" font-weight="bold" text-anchor="start">Proveedor</text><text x="480" y="457" font-size="12.5" fill="#fff" font-weight="bold" text-anchor="start">RUC</text><text x="600" y="457" font-size="12.5" fill="#fff" font-weight="bold" text-anchor="start">Serie-número</text><text x="810" y="457" font-size="12.5" fill="#fff" font-weight="bold" text-anchor="end">Importe</text><text x="90" y="488" font-size="12.5" fill="#1d2b28" font-weight="normal" text-anchor="start">1</text><text x="130" y="488" font-size="12.5" fill="#1d2b28" font-weight="normal" text-anchor="start">22/09/2026</text><text x="230" y="488" font-size="12.5" fill="#1d2b28" font-weight="normal" text-anchor="start">Distribuidora Andina S.A.C.</text><text x="480" y="488" font-size="12.5" fill="#1d2b28" font-weight="normal" text-anchor="start">20601234565</text><text x="600" y="488" font-size="12.5" fill="#1d2b28" font-weight="normal" text-anchor="start">F001-004821</text><text x="810" y="488" font-size="12.5" fill="#1d2b28" font-weight="normal" text-anchor="end">S/ 1 450,00</text><rect x="80" y="498" width="740" height="30" rx="0" fill="#f6f8f7" stroke="none" stroke-width="1.5"/><text x="90" y="518" font-size="12.5" fill="#1d2b28" font-weight="normal" text-anchor="start">2</text><text x="130" y="518" font-size="12.5" fill="#1d2b28" font-weight="normal" text-anchor="start">20/09/2026</text><text x="230" y="518" font-size="12.5" fill="#1d2b28" font-weight="normal" text-anchor="start">Comercial Lima Norte S.A.C.</text><text x="480" y="518" font-size="12.5" fill="#1d2b28" font-weight="normal" text-anchor="start">20512345671</text><text x="600" y="518" font-size="12.5" fill="#1d2b28" font-weight="normal" text-anchor="start">F002-000915</text><text x="810" y="518" font-size="12.5" fill="#1d2b28" font-weight="normal" text-anchor="end">S/ 386,40</text><text x="90" y="548" font-size="12.5" fill="#1d2b28" font-weight="normal" text-anchor="start">3</text><text x="130" y="548" font-size="12.5" fill="#1d2b28" font-weight="normal" text-anchor="start">18/09/2026</text><text x="230" y="548" font-size="12.5" fill="#1d2b28" font-weight="normal" text-anchor="start">Molinos del Sur S.A.</text><text x="480" y="548" font-size="12.5" fill="#1d2b28" font-weight="normal" text-anchor="start">20498765433</text><text x="600" y="548" font-size="12.5" fill="#1d2b28" font-weight="normal" text-anchor="start">E001-001284</text><text x="810" y="548" font-size="12.5" fill="#1d2b28" font-weight="normal" text-anchor="end">S/ 612,00</text><rect x="80" y="558" width="740" height="30" rx="0" fill="#f6f8f7" stroke="none" stroke-width="1.5"/><text x="90" y="578" font-size="12.5" fill="#1d2b28" font-weight="normal" text-anchor="start">4</text><text x="130" y="578" font-size="12.5" fill="#1d2b28" font-weight="normal" text-anchor="start">15/09/2026</text><text x="230" y="578" font-size="12.5" fill="#1d2b28" font-weight="normal" text-anchor="start">Bebidas Rímac S.A.C.</text><text x="480" y="578" font-size="12.5" fill="#1d2b28" font-weight="normal" text-anchor="start">20610022333</text><text x="600" y="578" font-size="12.5" fill="#1d2b28" font-weight="normal" text-anchor="start">F003-007712</text><text x="810" y="578" font-size="12.5" fill="#1d2b28" font-weight="normal" text-anchor="end">S/ 540,10</text><text x="90" y="608" font-size="12.5" fill="#1d2b28" font-weight="normal" text-anchor="start">5</text><text x="130" y="608" font-size="12.5" fill="#1d2b28" font-weight="normal" text-anchor="start">12/09/2026</text><text x="230" y="608" font-size="12.5" fill="#1d2b28" font-weight="normal" text-anchor="start">Lácteos San Juan E.I.R.L.</text><text x="480" y="608" font-size="12.5" fill="#1d2b28" font-weight="normal" text-anchor="start">20455667781</text><text x="600" y="608" font-size="12.5" fill="#1d2b28" font-weight="normal" text-anchor="start">F001-002231</text><text x="810" y="608" font-size="12.5" fill="#1d2b28" font-weight="normal" text-anchor="end">S/ 298,00</text><rect x="80" y="618" width="740" height="30" rx="0" fill="#f6f8f7" stroke="none" stroke-width="1.5"/><text x="90" y="638" font-size="12.5" fill="#1d2b28" font-weight="normal" text-anchor="start">6</text><text x="130" y="638" font-size="12.5" fill="#1d2b28" font-weight="normal" text-anchor="start">08/09/2026</text><text x="230" y="638" font-size="12.5" fill="#1d2b28" font-weight="normal" text-anchor="start">Distribuidora Andina S.A.C.</text><text x="480" y="638" font-size="12.5" fill="#1d2b28" font-weight="normal" text-anchor="start">20601234565</text><text x="600" y="638" font-size="12.5" fill="#1d2b28" font-weight="normal" text-anchor="start">F001-004655</text><text x="810" y="638" font-size="12.5" fill="#1d2b28" font-weight="normal" text-anchor="end">S/ 214,00</text><text x="90" y="670" font-size="12.5" fill="#5e6e6a" font-weight="normal" text-anchor="start">… 6 facturas más (páginas 2 y 3, con la imagen de cada comprobante)</text><rect x="80" y="684" width="740" height="34" rx="0" fill="#eef6e4" stroke="none" stroke-width="1.5"/><text x="90" y="706" font-size="14" fill="#1d2b28" font-weight="bold" text-anchor="start">Total de adquisiciones del mes</text><text x="810" y="706" font-size="14" fill="#1b4d45" font-weight="bold" text-anchor="end">S/ 4 120,50</text><text x="80" y="758" font-size="15" fill="#1d2b28" font-weight="bold" text-anchor="start">Imágenes de los comprobantes (muestra)</text><rect x="80" y="772" width="172" height="200" rx="0" fill="#fafafa" stroke="#a6a6a6" stroke-width="1"/><rect x="92" y="784" width="148" height="150" rx="0" fill="#fffdf8" stroke="#d6d0c4" stroke-width="1"/><rect x="102" y="798" width="100" height="6" rx="0" fill="#e2ddd2" stroke="none" stroke-width="1.5"/><rect x="102" y="818" width="70" height="6" rx="0" fill="#e2ddd2" stroke="none" stroke-width="1.5"/><rect x="102" y="838" width="100" height="6" rx="0" fill="#e2ddd2" stroke="none" stroke-width="1.5"/><rect x="102" y="858" width="70" height="6" rx="0" fill="#e2ddd2" stroke="none" stroke-width="1.5"/><rect x="102" y="878" width="100" height="6" rx="0" fill="#e2ddd2" stroke="none" stroke-width="1.5"/><rect x="102" y="898" width="70" height="6" rx="0" fill="#e2ddd2" stroke="none" stroke-width="1.5"/><text x="166" y="956" font-size="11.5" fill="#5e6e6a" font-weight="normal" text-anchor="middle">F001-004821</text><rect x="268" y="772" width="172" height="200" rx="0" fill="#fafafa" stroke="#a6a6a6" stroke-width="1"/><rect x="280" y="784" width="148" height="150" rx="0" fill="#fffdf8" stroke="#d6d0c4" stroke-width="1"/><rect x="290" y="798" width="100" height="6" rx="0" fill="#e2ddd2" stroke="none" stroke-width="1.5"/><rect x="290" y="818" width="70" height="6" rx="0" fill="#e2ddd2" stroke="none" stroke-width="1.5"/><rect x="290" y="838" width="100" height="6" rx="0" fill="#e2ddd2" stroke="none" stroke-width="1.5"/><rect x="290" y="858" width="70" height="6" rx="0" fill="#e2ddd2" stroke="none" stroke-width="1.5"/><rect x="290" y="878" width="100" height="6" rx="0" fill="#e2ddd2" stroke="none" stroke-width="1.5"/><rect x="290" y="898" width="70" height="6" rx="0" fill="#e2ddd2" stroke="none" stroke-width="1.5"/><text x="354" y="956" font-size="11.5" fill="#5e6e6a" font-weight="normal" text-anchor="middle">F002-000915</text><rect x="456" y="772" width="172" height="200" rx="0" fill="#fafafa" stroke="#a6a6a6" stroke-width="1"/><rect x="468" y="784" width="148" height="150" rx="0" fill="#fffdf8" stroke="#d6d0c4" stroke-width="1"/><rect x="478" y="798" width="100" height="6" rx="0" fill="#e2ddd2" stroke="none" stroke-width="1.5"/><rect x="478" y="818" width="70" height="6" rx="0" fill="#e2ddd2" stroke="none" stroke-width="1.5"/><rect x="478" y="838" width="100" height="6" rx="0" fill="#e2ddd2" stroke="none" stroke-width="1.5"/><rect x="478" y="858" width="70" height="6" rx="0" fill="#e2ddd2" stroke="none" stroke-width="1.5"/><rect x="478" y="878" width="100" height="6" rx="0" fill="#e2ddd2" stroke="none" stroke-width="1.5"/><rect x="478" y="898" width="70" height="6" rx="0" fill="#e2ddd2" stroke="none" stroke-width="1.5"/><text x="542" y="956" font-size="11.5" fill="#5e6e6a" font-weight="normal" text-anchor="middle">E001-001284</text><rect x="644" y="772" width="172" height="200" rx="0" fill="#fafafa" stroke="#a6a6a6" stroke-width="1"/><rect x="656" y="784" width="148" height="150" rx="0" fill="#fffdf8" stroke="#d6d0c4" stroke-width="1"/><rect x="666" y="798" width="100" height="6" rx="0" fill="#e2ddd2" stroke="none" stroke-width="1.5"/><rect x="666" y="818" width="70" height="6" rx="0" fill="#e2ddd2" stroke="none" stroke-width="1.5"/><rect x="666" y="838" width="100" height="6" rx="0" fill="#e2ddd2" stroke="none" stroke-width="1.5"/><rect x="666" y="858" width="70" height="6" rx="0" fill="#e2ddd2" stroke="none" stroke-width="1.5"/><rect x="666" y="878" width="100" height="6" rx="0" fill="#e2ddd2" stroke="none" stroke-width="1.5"/><rect x="666" y="898" width="70" height="6" rx="0" fill="#e2ddd2" stroke="none" stroke-width="1.5"/><text x="730" y="956" font-size="11.5" fill="#5e6e6a" font-weight="normal" text-anchor="middle">F003-007712</text><line x1="80" y1="1110" x2="820" y2="1110" stroke="#a6a6a6" stroke-width="1"/><text x="80" y="1134" font-size="11.5" fill="#5e6e6a" font-weight="normal" text-anchor="start">Documento de apoyo para la declaración; no reemplaza la declaración ante la SUNAT.</text><text x="80" y="1152" font-size="11.5" fill="#5e6e6a" font-weight="normal" text-anchor="start">Integridad del archivo (SHA-256): 3e7a 91c0 5d2b … 0f64 · Página 1 de 3</text></svg>